<?xml version="1.0" encoding="UTF-8" standalone="no"?>
<!-- Created with Inkscape (http://www.inkscape.org/) -->

<svg
   width="210mm"
   height="297mm"
   viewBox="0 0 793.70081 1122.5197"
   version="1.1"
   id="svg1"
   inkscape:version="1.3 (1:1.3+202307231459+0e150ed6c4)"
   sodipodi:docname="premier logo (1).svg"
   xmlns:inkscape="http://www.inkscape.org/namespaces/inkscape"
   xmlns:sodipodi="http://sodipodi.sourceforge.net/DTD/sodipodi-0.dtd"
   xmlns="http://www.w3.org/2000/svg"
   xmlns:svg="http://www.w3.org/2000/svg">
  <sodipodi:namedview
     id="namedview1"
     pagecolor="#505050"
     bordercolor="#eeeeee"
     borderopacity="1"
     inkscape:showpageshadow="0"
     inkscape:pageopacity="0"
     inkscape:pagecheckerboard="0"
     inkscape:deskcolor="#ffffff"
     inkscape:document-units="mm"
     showgrid="true"
     showguides="true"
     inkscape:zoom="0.55825888"
     inkscape:cx="840.11202"
     inkscape:cy="643.07082"
     inkscape:window-width="1850"
     inkscape:window-height="1016"
     inkscape:window-x="0"
     inkscape:window-y="0"
     inkscape:window-maximized="1"
     inkscape:current-layer="layer1">
    <inkscape:grid
       visible="true"
       id="grid1"
       units="mm"
       originx="0"
       originy="0"
       spacingx="3.7795276"
       spacingy="3.7795277"
       empcolor="#0099e5"
       empopacity="0.30196078"
       color="#0099e5"
       opacity="0.14901961"
       empspacing="5"
       dotted="false"
       gridanglex="30"
       gridanglez="30" />
    <sodipodi:guide
       position="359.05513,253.22837"
       orientation="1,0"
       id="guide14"
       inkscape:locked="false" />
  </sodipodi:namedview>
  <defs
     id="defs1">
    <filter
       style="color-interpolation-filters:sRGB;"
       inkscape:label="Greyscale"
       id="filter62"
       x="0"
       y="0"
       width="1"
       height="1">
      <feColorMatrix
         values="4.8607 1.43057 -3.3213 -0.908019 0 4.8607 1.43057 -3.3213 -0.908019 0 4.8607 1.43057 -3.3213 -0.908019 0 0 0 0 1 0 "
         id="feColorMatrix62"
         result="fbSourceGraphic" />
      <feColorMatrix
         result="fbSourceGraphicAlpha"
         in="fbSourceGraphic"
         values="0 0 0 -1 0 0 0 0 -1 0 0 0 0 -1 0 0 0 0 1 0"
         id="feColorMatrix65" />
      <feColorMatrix
         id="feColorMatrix66"
         values="4.8607 1.43057 -3.3213 -0.908019 0 4.8607 1.43057 -3.3213 -0.908019 0 4.8607 1.43057 -3.3213 -0.908019 0 0 0 0 1 0 "
         in="fbSourceGraphic"
         result="fbSourceGraphic" />
      <feColorMatrix
         result="fbSourceGraphicAlpha"
         in="fbSourceGraphic"
         values="0 0 0 -1 0 0 0 0 -1 0 0 0 0 -1 0 0 0 0 1 0"
         id="feColorMatrix71" />
      <feColorMatrix
         id="feColorMatrix72"
         values="4.8607 1.43057 -3.3213 -0.908019 0 4.8607 1.43057 -3.3213 -0.908019 0 4.8607 1.43057 -3.3213 -0.908019 0 0 0 0 1 0 "
         in="fbSourceGraphic"
         result="fbSourceGraphic" />
      <feColorMatrix
         result="fbSourceGraphicAlpha"
         in="fbSourceGraphic"
         values="0 0 0 -1 0 0 0 0 -1 0 0 0 0 -1 0 0 0 0 1 0"
         id="feColorMatrix77" />
      <feColorMatrix
         id="feColorMatrix78"
         values="4.8607 1.43057 -3.3213 -0.908019 0 4.8607 1.43057 -3.3213 -0.908019 0 4.8607 1.43057 -3.3213 -0.908019 0 0 0 0 1 0 "
         in="fbSourceGraphic"
         result="fbSourceGraphic" />
      <feColorMatrix
         result="fbSourceGraphicAlpha"
         in="fbSourceGraphic"
         values="0 0 0 -1 0 0 0 0 -1 0 0 0 0 -1 0 0 0 0 1 0"
         id="feColorMatrix83" />
      <feColorMatrix
         id="feColorMatrix84"
         values="4.8607 1.43057 -3.3213 -0.908019 0 4.8607 1.43057 -3.3213 -0.908019 0 4.8607 1.43057 -3.3213 -0.908019 0 0 0 0 1 0 "
         in="fbSourceGraphic"
         result="fbSourceGraphic" />
      <feColorMatrix
         result="fbSourceGraphicAlpha"
         in="fbSourceGraphic"
         values="0 0 0 -1 0 0 0 0 -1 0 0 0 0 -1 0 0 0 0 1 0"
         id="feColorMatrix89" />
      <feColorMatrix
         id="feColorMatrix90"
         values="4.8607 1.43057 -3.3213 -0.908019 0 4.8607 1.43057 -3.3213 -0.908019 0 4.8607 1.43057 -3.3213 -0.908019 0 0 0 0 1 0 "
         in="fbSourceGraphic"
         result="fbSourceGraphic" />
      <feColorMatrix
         result="fbSourceGraphicAlpha"
         in="fbSourceGraphic"
         values="0 0 0 -1 0 0 0 0 -1 0 0 0 0 -1 0 0 0 0 1 0"
         id="feColorMatrix95" />
      <feColorMatrix
         id="feColorMatrix96"
         values="4.8607 1.43057 -3.3213 -0.908019 0 4.8607 1.43057 -3.3213 -0.908019 0 4.8607 1.43057 -3.3213 -0.908019 0 0 0 0 1 0 "
         in="fbSourceGraphic"
         result="fbSourceGraphic" />
      <feColorMatrix
         result="fbSourceGraphicAlpha"
         in="fbSourceGraphic"
         values="0 0 0 -1 0 0 0 0 -1 0 0 0 0 -1 0 0 0 0 1 0"
         id="feColorMatrix101" />
      <feColorMatrix
         id="feColorMatrix102"
         values="4.8607 1.43057 -3.3213 -0.908019 0 4.8607 1.43057 -3.3213 -0.908019 0 4.8607 1.43057 -3.3213 -0.908019 0 0 0 0 1 0 "
         in="fbSourceGraphic"
         result="fbSourceGraphic" />
      <feColorMatrix
         result="fbSourceGraphicAlpha"
         in="fbSourceGraphic"
         values="0 0 0 -1 0 0 0 0 -1 0 0 0 0 -1 0 0 0 0 1 0"
         id="feColorMatrix107" />
      <feColorMatrix
         id="feColorMatrix108"
         values="4.8607 1.43057 -3.3213 -0.908019 0 4.8607 1.43057 -3.3213 -0.908019 0 4.8607 1.43057 -3.3213 -0.908019 0 0 0 0 1 0 "
         in="fbSourceGraphic"
         result="fbSourceGraphic" />
      <feColorMatrix
         result="fbSourceGraphicAlpha"
         in="fbSourceGraphic"
         values="0 0 0 -1 0 0 0 0 -1 0 0 0 0 -1 0 0 0 0 1 0"
         id="feColorMatrix113" />
      <feColorMatrix
         id="feColorMatrix114"
         values="4.8607 1.43057 -3.3213 -0.908019 0 4.8607 1.43057 -3.3213 -0.908019 0 4.8607 1.43057 -3.3213 -0.908019 0 0 0 0 1 0 "
         in="fbSourceGraphic"
         result="fbSourceGraphic" />
      <feColorMatrix
         result="fbSourceGraphicAlpha"
         in="fbSourceGraphic"
         values="0 0 0 -1 0 0 0 0 -1 0 0 0 0 -1 0 0 0 0 1 0"
         id="feColorMatrix119" />
      <feColorMatrix
         id="feColorMatrix120"
         values="4.8607 1.43057 -3.3213 -0.908019 0 4.8607 1.43057 -3.3213 -0.908019 0 4.8607 1.43057 -3.3213 -0.908019 0 0 0 0 1 0 "
         in="fbSourceGraphic"
         result="fbSourceGraphic" />
      <feColorMatrix
         result="fbSourceGraphicAlpha"
         in="fbSourceGraphic"
         values="0 0 0 -1 0 0 0 0 -1 0 0 0 0 -1 0 0 0 0 1 0"
         id="feColorMatrix125" />
      <feColorMatrix
         id="feColorMatrix126"
         values="4.8607 1.43057 -3.3213 -0.908019 0 4.8607 1.43057 -3.3213 -0.908019 0 4.8607 1.43057 -3.3213 -0.908019 0 0 0 0 1 0 "
         in="fbSourceGraphic"
         result="fbSourceGraphic" />
      <feColorMatrix
         result="fbSourceGraphicAlpha"
         in="fbSourceGraphic"
         values="0 0 0 -1 0 0 0 0 -1 0 0 0 0 -1 0 0 0 0 1 0"
         id="feColorMatrix361" />
      <feColorMatrix
         id="feColorMatrix362"
         values="-1.57 -0.524027 3.69497 -0.908019 0 -1.57 -0.524027 3.69497 -0.908019 0 -1.57 -0.524027 3.69497 -0.908019 0 0 0 0 1 0 "
         in="fbSourceGraphic" />
    </filter>
    <filter
       style="color-interpolation-filters:sRGB;"
       inkscape:label="Greyscale"
       id="filter63"
       x="0"
       y="0"
       width="1"
       height="1">
      <feColorMatrix
         values="4.8607 1.43057 -3.3213 -0.908019 0 4.8607 1.43057 -3.3213 -0.908019 0 4.8607 1.43057 -3.3213 -0.908019 0 0 0 0 1 0 "
         id="feColorMatrix63"
         result="fbSourceGraphic" />
      <feColorMatrix
         result="fbSourceGraphicAlpha"
         in="fbSourceGraphic"
         values="0 0 0 -1 0 0 0 0 -1 0 0 0 0 -1 0 0 0 0 1 0"
         id="feColorMatrix67" />
      <feColorMatrix
         id="feColorMatrix68"
         values="4.8607 1.43057 -3.3213 -0.908019 0 4.8607 1.43057 -3.3213 -0.908019 0 4.8607 1.43057 -3.3213 -0.908019 0 0 0 0 1 0 "
         in="fbSourceGraphic"
         result="fbSourceGraphic" />
      <feColorMatrix
         result="fbSourceGraphicAlpha"
         in="fbSourceGraphic"
         values="0 0 0 -1 0 0 0 0 -1 0 0 0 0 -1 0 0 0 0 1 0"
         id="feColorMatrix73" />
      <feColorMatrix
         id="feColorMatrix74"
         values="4.8607 1.43057 -3.3213 -0.908019 0 4.8607 1.43057 -3.3213 -0.908019 0 4.8607 1.43057 -3.3213 -0.908019 0 0 0 0 1 0 "
         in="fbSourceGraphic"
         result="fbSourceGraphic" />
      <feColorMatrix
         result="fbSourceGraphicAlpha"
         in="fbSourceGraphic"
         values="0 0 0 -1 0 0 0 0 -1 0 0 0 0 -1 0 0 0 0 1 0"
         id="feColorMatrix79" />
      <feColorMatrix
         id="feColorMatrix80"
         values="4.8607 1.43057 -3.3213 -0.908019 0 4.8607 1.43057 -3.3213 -0.908019 0 4.8607 1.43057 -3.3213 -0.908019 0 0 0 0 1 0 "
         in="fbSourceGraphic"
         result="fbSourceGraphic" />
      <feColorMatrix
         result="fbSourceGraphicAlpha"
         in="fbSourceGraphic"
         values="0 0 0 -1 0 0 0 0 -1 0 0 0 0 -1 0 0 0 0 1 0"
         id="feColorMatrix85" />
      <feColorMatrix
         id="feColorMatrix86"
         values="4.8607 1.43057 -3.3213 -0.908019 0 4.8607 1.43057 -3.3213 -0.908019 0 4.8607 1.43057 -3.3213 -0.908019 0 0 0 0 1 0 "
         in="fbSourceGraphic"
         result="fbSourceGraphic" />
      <feColorMatrix
         result="fbSourceGraphicAlpha"
         in="fbSourceGraphic"
         values="0 0 0 -1 0 0 0 0 -1 0 0 0 0 -1 0 0 0 0 1 0"
         id="feColorMatrix91" />
      <feColorMatrix
         id="feColorMatrix92"
         values="4.8607 1.43057 -3.3213 -0.908019 0 4.8607 1.43057 -3.3213 -0.908019 0 4.8607 1.43057 -3.3213 -0.908019 0 0 0 0 1 0 "
         in="fbSourceGraphic"
         result="fbSourceGraphic" />
      <feColorMatrix
         result="fbSourceGraphicAlpha"
         in="fbSourceGraphic"
         values="0 0 0 -1 0 0 0 0 -1 0 0 0 0 -1 0 0 0 0 1 0"
         id="feColorMatrix97" />
      <feColorMatrix
         id="feColorMatrix98"
         values="4.8607 1.43057 -3.3213 -0.908019 0 4.8607 1.43057 -3.3213 -0.908019 0 4.8607 1.43057 -3.3213 -0.908019 0 0 0 0 1 0 "
         in="fbSourceGraphic"
         result="fbSourceGraphic" />
      <feColorMatrix
         result="fbSourceGraphicAlpha"
         in="fbSourceGraphic"
         values="0 0 0 -1 0 0 0 0 -1 0 0 0 0 -1 0 0 0 0 1 0"
         id="feColorMatrix103" />
      <feColorMatrix
         id="feColorMatrix104"
         values="4.8607 1.43057 -3.3213 -0.908019 0 4.8607 1.43057 -3.3213 -0.908019 0 4.8607 1.43057 -3.3213 -0.908019 0 0 0 0 1 0 "
         in="fbSourceGraphic"
         result="fbSourceGraphic" />
      <feColorMatrix
         result="fbSourceGraphicAlpha"
         in="fbSourceGraphic"
         values="0 0 0 -1 0 0 0 0 -1 0 0 0 0 -1 0 0 0 0 1 0"
         id="feColorMatrix109" />
      <feColorMatrix
         id="feColorMatrix110"
         values="4.8607 1.43057 -3.3213 -0.908019 0 4.8607 1.43057 -3.3213 -0.908019 0 4.8607 1.43057 -3.3213 -0.908019 0 0 0 0 1 0 "
         in="fbSourceGraphic"
         result="fbSourceGraphic" />
      <feColorMatrix
         result="fbSourceGraphicAlpha"
         in="fbSourceGraphic"
         values="0 0 0 -1 0 0 0 0 -1 0 0 0 0 -1 0 0 0 0 1 0"
         id="feColorMatrix115" />
      <feColorMatrix
         id="feColorMatrix116"
         values="4.8607 1.43057 -3.3213 -0.908019 0 4.8607 1.43057 -3.3213 -0.908019 0 4.8607 1.43057 -3.3213 -0.908019 0 0 0 0 1 0 "
         in="fbSourceGraphic"
         result="fbSourceGraphic" />
      <feColorMatrix
         result="fbSourceGraphicAlpha"
         in="fbSourceGraphic"
         values="0 0 0 -1 0 0 0 0 -1 0 0 0 0 -1 0 0 0 0 1 0"
         id="feColorMatrix121" />
      <feColorMatrix
         id="feColorMatrix122"
         values="4.8607 1.43057 -3.3213 -0.908019 0 4.8607 1.43057 -3.3213 -0.908019 0 4.8607 1.43057 -3.3213 -0.908019 0 0 0 0 1 0 "
         in="fbSourceGraphic"
         result="fbSourceGraphic" />
      <feColorMatrix
         result="fbSourceGraphicAlpha"
         in="fbSourceGraphic"
         values="0 0 0 -1 0 0 0 0 -1 0 0 0 0 -1 0 0 0 0 1 0"
         id="feColorMatrix127" />
      <feColorMatrix
         id="feColorMatrix128"
         values="4.8607 1.43057 -3.3213 -0.908019 0 4.8607 1.43057 -3.3213 -0.908019 0 4.8607 1.43057 -3.3213 -0.908019 0 0 0 0 1 0 "
         in="fbSourceGraphic"
         result="fbSourceGraphic" />
      <feColorMatrix
         result="fbSourceGraphicAlpha"
         in="fbSourceGraphic"
         values="0 0 0 -1 0 0 0 0 -1 0 0 0 0 -1 0 0 0 0 1 0"
         id="feColorMatrix363" />
      <feColorMatrix
         id="feColorMatrix364"
         values="-1.57 -0.524027 3.69497 -0.908019 0 -1.57 -0.524027 3.69497 -0.908019 0 -1.57 -0.524027 3.69497 -0.908019 0 0 0 0 1 0 "
         in="fbSourceGraphic" />
    </filter>
    <filter
       style="color-interpolation-filters:sRGB;"
       inkscape:label="Greyscale"
       id="filter64"
       x="0"
       y="0"
       width="1"
       height="1">
      <feColorMatrix
         values="4.8607 1.43057 -3.3213 -0.908019 0 4.8607 1.43057 -3.3213 -0.908019 0 4.8607 1.43057 -3.3213 -0.908019 0 0 0 0 1 0 "
         id="feColorMatrix64"
         result="fbSourceGraphic" />
      <feColorMatrix
         result="fbSourceGraphicAlpha"
         in="fbSourceGraphic"
         values="0 0 0 -1 0 0 0 0 -1 0 0 0 0 -1 0 0 0 0 1 0"
         id="feColorMatrix69" />
      <feColorMatrix
         id="feColorMatrix70"
         values="4.8607 1.43057 -3.3213 -0.908019 0 4.8607 1.43057 -3.3213 -0.908019 0 4.8607 1.43057 -3.3213 -0.908019 0 0 0 0 1 0 "
         in="fbSourceGraphic"
         result="fbSourceGraphic" />
      <feColorMatrix
         result="fbSourceGraphicAlpha"
         in="fbSourceGraphic"
         values="0 0 0 -1 0 0 0 0 -1 0 0 0 0 -1 0 0 0 0 1 0"
         id="feColorMatrix75" />
      <feColorMatrix
         id="feColorMatrix76"
         values="4.8607 1.43057 -3.3213 -0.908019 0 4.8607 1.43057 -3.3213 -0.908019 0 4.8607 1.43057 -3.3213 -0.908019 0 0 0 0 1 0 "
         in="fbSourceGraphic"
         result="fbSourceGraphic" />
      <feColorMatrix
         result="fbSourceGraphicAlpha"
         in="fbSourceGraphic"
         values="0 0 0 -1 0 0 0 0 -1 0 0 0 0 -1 0 0 0 0 1 0"
         id="feColorMatrix81" />
      <feColorMatrix
         id="feColorMatrix82"
         values="4.8607 1.43057 -3.3213 -0.908019 0 4.8607 1.43057 -3.3213 -0.908019 0 4.8607 1.43057 -3.3213 -0.908019 0 0 0 0 1 0 "
         in="fbSourceGraphic"
         result="fbSourceGraphic" />
      <feColorMatrix
         result="fbSourceGraphicAlpha"
         in="fbSourceGraphic"
         values="0 0 0 -1 0 0 0 0 -1 0 0 0 0 -1 0 0 0 0 1 0"
         id="feColorMatrix87" />
      <feColorMatrix
         id="feColorMatrix88"
         values="4.8607 1.43057 -3.3213 -0.908019 0 4.8607 1.43057 -3.3213 -0.908019 0 4.8607 1.43057 -3.3213 -0.908019 0 0 0 0 1 0 "
         in="fbSourceGraphic"
         result="fbSourceGraphic" />
      <feColorMatrix
         result="fbSourceGraphicAlpha"
         in="fbSourceGraphic"
         values="0 0 0 -1 0 0 0 0 -1 0 0 0 0 -1 0 0 0 0 1 0"
         id="feColorMatrix93" />
      <feColorMatrix
         id="feColorMatrix94"
         values="4.8607 1.43057 -3.3213 -0.908019 0 4.8607 1.43057 -3.3213 -0.908019 0 4.8607 1.43057 -3.3213 -0.908019 0 0 0 0 1 0 "
         in="fbSourceGraphic"
         result="fbSourceGraphic" />
      <feColorMatrix
         result="fbSourceGraphicAlpha"
         in="fbSourceGraphic"
         values="0 0 0 -1 0 0 0 0 -1 0 0 0 0 -1 0 0 0 0 1 0"
         id="feColorMatrix99" />
      <feColorMatrix
         id="feColorMatrix100"
         values="4.8607 1.43057 -3.3213 -0.908019 0 4.8607 1.43057 -3.3213 -0.908019 0 4.8607 1.43057 -3.3213 -0.908019 0 0 0 0 1 0 "
         in="fbSourceGraphic"
         result="fbSourceGraphic" />
      <feColorMatrix
         result="fbSourceGraphicAlpha"
         in="fbSourceGraphic"
         values="0 0 0 -1 0 0 0 0 -1 0 0 0 0 -1 0 0 0 0 1 0"
         id="feColorMatrix105" />
      <feColorMatrix
         id="feColorMatrix106"
         values="4.8607 1.43057 -3.3213 -0.908019 0 4.8607 1.43057 -3.3213 -0.908019 0 4.8607 1.43057 -3.3213 -0.908019 0 0 0 0 1 0 "
         in="fbSourceGraphic"
         result="fbSourceGraphic" />
      <feColorMatrix
         result="fbSourceGraphicAlpha"
         in="fbSourceGraphic"
         values="0 0 0 -1 0 0 0 0 -1 0 0 0 0 -1 0 0 0 0 1 0"
         id="feColorMatrix111" />
      <feColorMatrix
         id="feColorMatrix112"
         values="4.8607 1.43057 -3.3213 -0.908019 0 4.8607 1.43057 -3.3213 -0.908019 0 4.8607 1.43057 -3.3213 -0.908019 0 0 0 0 1 0 "
         in="fbSourceGraphic"
         result="fbSourceGraphic" />
      <feColorMatrix
         result="fbSourceGraphicAlpha"
         in="fbSourceGraphic"
         values="0 0 0 -1 0 0 0 0 -1 0 0 0 0 -1 0 0 0 0 1 0"
         id="feColorMatrix117" />
      <feColorMatrix
         id="feColorMatrix118"
         values="4.8607 1.43057 -3.3213 -0.908019 0 4.8607 1.43057 -3.3213 -0.908019 0 4.8607 1.43057 -3.3213 -0.908019 0 0 0 0 1 0 "
         in="fbSourceGraphic"
         result="fbSourceGraphic" />
      <feColorMatrix
         result="fbSourceGraphicAlpha"
         in="fbSourceGraphic"
         values="0 0 0 -1 0 0 0 0 -1 0 0 0 0 -1 0 0 0 0 1 0"
         id="feColorMatrix123" />
      <feColorMatrix
         id="feColorMatrix124"
         values="4.8607 1.43057 -3.3213 -0.908019 0 4.8607 1.43057 -3.3213 -0.908019 0 4.8607 1.43057 -3.3213 -0.908019 0 0 0 0 1 0 "
         in="fbSourceGraphic"
         result="fbSourceGraphic" />
      <feColorMatrix
         result="fbSourceGraphicAlpha"
         in="fbSourceGraphic"
         values="0 0 0 -1 0 0 0 0 -1 0 0 0 0 -1 0 0 0 0 1 0"
         id="feColorMatrix129" />
      <feColorMatrix
         id="feColorMatrix130"
         values="4.8607 1.43057 -3.3213 -0.908019 0 4.8607 1.43057 -3.3213 -0.908019 0 4.8607 1.43057 -3.3213 -0.908019 0 0 0 0 1 0 "
         in="fbSourceGraphic"
         result="fbSourceGraphic" />
      <feColorMatrix
         result="fbSourceGraphicAlpha"
         in="fbSourceGraphic"
         values="0 0 0 -1 0 0 0 0 -1 0 0 0 0 -1 0 0 0 0 1 0"
         id="feColorMatrix365" />
      <feColorMatrix
         id="feColorMatrix366"
         values="-1.57 -0.524027 3.69497 -0.908019 0 -1.57 -0.524027 3.69497 -0.908019 0 -1.57 -0.524027 3.69497 -0.908019 0 0 0 0 1 0 "
         in="fbSourceGraphic" />
    </filter>
  </defs>
  <g
     inkscape:label="Calque 1"
     inkscape:groupmode="layer"
     id="layer1">
    <path
       id="path13"
       style="fill:#0000ff;stroke:none;stroke-width:0.942809"
       d="M 455.0077,293.25249 C 422.3832,391.12591 377.319,467.53196 344.8709,530.74273 375.4527,515.62742 403.408,506.7857 403.408,506.7857 a 9.1823385,9.1823385 0 0 1 3.4532,-0.39648 9.1823385,9.1823385 0 0 1 8.4804,9.41211 c 0,0 -0.8266,29.63572 -4.5097,63.43555 -1.8416,16.89991 -4.389,34.86705 -7.9805,50.93945 -3.5914,16.0724 -7.8994,30.14092 -14.9531,40.2793 -13.3635,19.20768 -34.6577,25.14141 -51.4356,26.36914 -9.1018,0.66603 -16.6918,0.057 -22.2813,-0.68164 l -2.039,5.70898 c 9.0095,25.95823 24.8963,48.7008 45.4766,66.05665 -1.6102,-6.91743 -1.1787,-15.0605 0.3262,-23.93165 1.7315,-10.2075 5.1492,-20.98264 11.0761,-29.66406 7.1405,-10.45906 18.9803,-16.29051 31.8926,-19.86523 12.9123,-3.57474 27.2759,-4.90351 40.8125,-5.20899 27.0731,-0.61096 51.0742,3.01563 51.0742,3.01563 a 7.5030033,7.5030033 0 0 1 5.5332,10.89843 c 0,0 -10.0745,19.26385 -23.373,40.35743 -6.6493,10.54679 -14.1083,21.57281 -21.6621,31.0332 -7.5539,9.46039 -14.9228,17.38984 -23.0059,21.90039 -2.6668,1.48814 -5.363,2.60473 -8.0586,3.44141 10.5569,2.33437 21.5144,3.60351 32.7735,3.60351 83.4948,-10e-6 151.1796,-67.68484 151.1796,-151.17969 0,-83.49484 -94.4869,-188.97824 -151.1796,-359.05665 z" />
    <path
       id="path14"
       style="fill:#00ff00;stroke-width:1.41421"
       d="m 453.4104,117.14643 c 1.5967,230.43806 188.9746,395.2707 188.9746,538.57618 -2e-4,104.36824 -84.6083,188.97655 -188.9765,188.97657 -41.2243,0 -79.2951,-13.28887 -110.3555,-35.69336 l 29.4004,-28.72852 c 0,0 28.9749,23.68435 54.1836,9.61719 25.2088,-14.06713 65.0488,-90.21875 65.0488,-90.21875 0,0 -93.9469,-14.12028 -116.4687,18.86914 -10.0034,14.65243 -13.1174,39.85858 -9.6387,49.9668 45.405,-24.105 80.7012,-44.73243 80.7012,-44.73243 -41.9559,27.81294 -81.1339,49.9524 -109.3672,80.57032 -20.4821,-16.07861 -37.4689,-36.33544 -49.9082,-59.40235 l 21.1035,-59.0918 c 0,0 49.7393,11.71353 72.2519,-20.64453 22.513,-32.35804 25.8047,-149.66602 25.8047,-149.66602 0,0 -123.7454,38.92562 -131.6308,92.89649 -3.5023,23.9715 7.7701,56.76996 18.0918,67.0918 41.2874,-56.77013 72.2519,-103.21875 72.2519,-103.21875 -33.7298,57.37691 -67.4953,106.6549 -84.414,159.18359 -28.7929,-10.61301 -17.4544,-6.83348 -32.5725,-29.51065 l -8.5936,-8.46982 C 200.3573,660.62052 151.0749,635.69739 98.478777,604.8437 c 0,0 49.670023,25.47844 113.382823,54.94336 3.9858,-14.04249 -2.1483,-48.17771 -16.8848,-67.40625 -33.1785,-43.29224 -160.210923,-17.0039 -160.210923,-17.0039 0,0 60.02295,100.8452 95.447323,118.13672 35.4241,17.29162 73.1562,-17.16992 73.1562,-17.16992 l 27.8359,24.36328 c 20.8794,103.67649 112.3752,181.78711 222.2032,181.78711 125.2417,-10e-6 226.7734,-101.52959 226.7734,-226.77149 0,-125.24094 -141.7322,-283.4628 -226.7715,-538.57618 z"
       sodipodi:nodetypes="cssccscscccccccscccccccscsccssc" />
    <path
       id="path15"
       style="fill:#ffffff;stroke-width:1"
       d="m 585.6924,655.7238 c 0.726,9.82325 -0.9411,40.98838 -18.8976,56.69291 -17.9565,15.70453 -70.2814,-0.41025 -37.7953,-56.69291 32.4861,-56.28266 -31.998,-192.58675 6.5747,-132.28347 48.8708,76.40296 49.3922,122.46022 50.1182,132.28347 z"
       sodipodi:nodetypes="zzzsz" />
    <path
       id="path26"
       style="fill:#0000ff;stroke:none;stroke-width:0.942809;filter:url(#filter64)"
       d="m 2165.9076,248.90294 c -32.6245,97.87342 -77.6887,174.27947 -110.1368,237.49024 30.5818,-15.11531 58.5371,-23.95703 58.5371,-23.95703 a 9.1823385,9.1823385 0 0 1 3.4532,-0.39648 9.1823385,9.1823385 0 0 1 8.4804,9.41211 c 0,0 -0.8266,29.63572 -4.5097,63.43555 -1.8416,16.89991 -4.389,34.86705 -7.9805,50.93945 -3.5914,16.0724 -7.8994,30.14092 -14.9531,40.2793 -13.3635,19.20768 -34.6577,25.14141 -51.4356,26.36914 -9.1018,0.66603 -16.6918,0.057 -22.2813,-0.68164 l -2.039,5.70898 c 9.0095,25.95823 24.8963,48.7008 45.4766,66.05665 -1.6102,-6.91743 -1.1787,-15.0605 0.3262,-23.93165 1.7315,-10.2075 5.1492,-20.98264 11.0761,-29.66406 7.1405,-10.45906 18.9803,-16.29051 31.8926,-19.86523 12.9123,-3.57474 27.2759,-4.90351 40.8125,-5.20899 27.0731,-0.61096 51.0742,3.01563 51.0742,3.01563 a 7.5030033,7.5030033 0 0 1 5.5332,10.89843 c 0,0 -10.0745,19.26385 -23.373,40.35743 -6.6493,10.54679 -14.1083,21.57281 -21.6621,31.0332 -7.5539,9.46039 -14.9228,17.38984 -23.0059,21.90039 -2.6668,1.48814 -5.363,2.60473 -8.0586,3.44141 10.5569,2.33437 21.5144,3.60351 32.7735,3.60351 83.4948,-10e-6 151.1796,-67.68484 151.1796,-151.17969 0,-83.49484 -94.4869,-188.97824 -151.1796,-359.05665 z" />
    <path
       id="path27"
       style="fill:#00ff00;stroke-width:1.41421;filter:url(#filter63)"
       d="m 2164.3103,72.796877 c 1.5967,230.438063 188.9746,395.270703 188.9746,538.576183 -2e-4,104.36824 -84.6083,188.97655 -188.9765,188.97657 -41.2243,0 -79.2951,-13.28887 -110.3555,-35.69336 l 29.4004,-28.72852 c 0,0 28.9749,23.68435 54.1836,9.61719 25.2088,-14.06713 65.0488,-90.21875 65.0488,-90.21875 0,0 -93.9469,-14.12028 -116.4687,18.86914 -10.0034,14.65243 -13.1174,39.85858 -9.6387,49.9668 45.405,-24.105 80.7012,-44.73243 80.7012,-44.73243 -41.9559,27.81294 -81.1339,49.9524 -109.3672,80.57032 -20.4821,-16.07861 -37.4689,-36.33544 -49.9082,-59.40235 l 21.1035,-59.0918 c 0,0 49.7393,11.71353 72.2519,-20.64453 22.513,-32.35804 25.8047,-149.66602 25.8047,-149.66602 0,0 -123.7454,38.92562 -131.6308,92.89649 -3.5023,23.9715 7.7701,56.76996 18.0918,67.0918 41.2874,-56.77013 72.2519,-103.21875 72.2519,-103.21875 -33.7298,57.37691 -67.4953,106.6549 -84.414,159.18359 -28.7929,-10.61301 -17.4544,-6.83348 -32.5725,-29.51065 l -8.5936,-8.46982 c -38.9398,-32.89701 -88.2222,-57.82014 -140.8184,-88.67383 0,0 49.6701,25.47844 113.3829,54.94336 3.9858,-14.04249 -2.1483,-48.17771 -16.8848,-67.40625 -33.1785,-43.29224 -160.211,-17.0039 -160.211,-17.0039 0,0 60.023,100.8452 95.4474,118.13672 35.4241,17.29162 73.1562,-17.16992 73.1562,-17.16992 l 27.8359,24.36328 c 20.8794,103.67649 112.3752,181.78711 222.2032,181.78711 125.2417,-10e-6 226.7734,-101.52959 226.7734,-226.77149 0,-125.24094 -141.7322,-283.4628 -226.7715,-538.576183 z"
       sodipodi:nodetypes="cssccscscccccccscccccccscsccssc" />
    <path
       id="path28"
       style="fill:#ffffff;stroke-width:1;filter:url(#filter62)"
       d="m 2296.5923,611.37425 c 0.726,9.82325 -0.9411,40.98838 -18.8976,56.69291 -17.9565,15.70453 -70.2814,-0.41025 -37.7953,-56.69291 32.4861,-56.28266 -31.998,-192.58675 6.5747,-132.28347 48.8708,76.40296 49.3922,122.46022 50.1182,132.28347 z"
       sodipodi:nodetypes="zzzsz" />
  </g>
</svg>
